<svg viewBox="0 0 566.93 566.93" xmlns="http://www.w3.org/2000/svg"><circle cx="283.46" cy="283.46" fill="#f8d608" r="283.46"/><path d="m126.84 320.66c-8.39 2.14-16.8 4.46-25.21 6.96-8.42 2.5-16.73 5.14-24.93 7.91" fill="none" stroke="#010101" stroke-miterlimit="10" stroke-width="19"/><path d="m169.21 237.45-7.46 18.8h-29.85l41.61-108.19h30.71l40.75 108.19h-29.99l-7.03-18.8zm19.66-55.96h-.29l-11.62 34.44h23.39z" fill="#010101"/><path d="m393.68 148.06h34.87l-43.05 51.23 46.92 56.96h-36.45l-36.3-46.92h-.29v46.92h-28.12v-108.19h28.12v44.63h.29z" fill="#010101"/><g fill="none" stroke="#010101" stroke-miterlimit="10"><path d="m440.09 320.66c8.39 2.14 16.8 4.46 25.21 6.96 8.42 2.5 16.73 5.14 24.93 7.91" stroke-width="19"/><path d="m465.16 328.1c-19.71 82.08-93.58 143.07-181.7 143.07s-161.99-61-181.7-143.07" stroke-width="21"/></g></svg>